<?xml version="1.0" encoding="iso-8859-1"?>
<!-- Generator: Adobe Illustrator 19.0.0, SVG Export Plug-In . SVG Version: 6.00 Build 0)  -->
<svg version="1.1" id="Capa_1" xmlns="http://www.w3.org/2000/svg" xmlns:xlink="http://www.w3.org/1999/xlink" x="0px" y="0px"
	 viewBox="0 0 512 512" style="enable-background:new 0 0 512 512;" xml:space="preserve">
<path style="fill:#B0BEC5;" d="M500.663,305.086c-8.428,31.465-40.769,50.133-72.234,41.705l-45.179-12.103L187.653,447.62
	l-12.103,45.169c-1.913,7.119-5.034,13.573-9.102,19.211H70.723c-9.988-13.865-13.885-31.948-9.122-49.74
	c-31.465-8.438-50.133-40.779-41.705-72.244s40.779-50.133,72.244-41.705l45.169,12.103l195.597-112.922l12.103-45.179
	c8.438-31.465,40.779-50.133,72.244-41.705c31.465,8.428,50.133,40.769,41.705,72.234
	C490.423,241.279,509.09,273.62,500.663,305.086z"/>
<path style="fill:#90A4AE;" d="M500.663,305.086c0.103-0.383,0.182-0.766,0.277-1.149c-0.43-0.451-0.847-0.911-1.289-1.353
	c-14.944-14.943-34.812-23.173-55.945-23.173c-8.638,0-17.057,1.397-25.021,4.044h-25.588l-55.07-55.07l-5.12,19.109
	L137.309,360.414L92.14,348.311c-31.465-8.428-63.816,10.24-72.244,41.705s10.24,63.806,41.705,72.244
	c-4.763,17.792-0.866,35.875,9.122,49.74h34.4c6.956-3.667,13.4-8.393,19.118-14.111l27.171-27.171h30.051l6.189-23.098
	L383.25,334.688l45.179,12.103C459.894,355.218,492.235,336.551,500.663,305.086z"/>
<path style="fill:#F78B45;" d="M127.246,204.885l178.108,178.108v52.155c0,36.328,29.449,65.778,65.778,65.778
	s65.778-29.449,65.778-65.778c36.328,0,65.778-29.449,65.778-65.778s-29.449-65.778-65.778-65.778h-52.155L206.647,125.484V73.329
	c0-36.328-29.449-65.778-65.778-65.778S75.091,37.001,75.091,73.329c-36.328,0-65.778,29.449-65.778,65.778
	s29.449,65.778,65.778,65.778H127.246z"/>
<path style="fill:#EA6928;" d="M436.909,303.591h-50.158l-26.163,26.163h-83.3L132.28,184.747H80.126
	c-36.328,0-65.778-29.449-65.778-65.778c0-1.941,0.102-3.857,0.266-5.756c-3.407,7.947-5.3,16.698-5.3,25.894
	c0,36.328,29.449,65.778,65.778,65.778h52.155l178.108,178.108v52.155c0,36.328,29.449,65.778,65.778,65.778
	s65.778-29.449,65.778-65.778c36.328,0,65.778-29.449,65.778-65.778S473.237,303.591,436.909,303.591z"/>
<path style="fill:#FDD8A8;" d="M143.071,450.58h225.858l33.069,33.069c23.033,23.033,60.379,23.033,83.413,0
	c23.033-23.033,23.033-60.379,0-83.413c23.033-23.033,23.033-60.379,0-83.413c-23.033-23.033-60.379-23.033-83.413,0l-33.069,33.069
	H143.071l-33.069-33.069c-23.033-23.033-60.379-23.033-83.413,0c-23.033,23.033-23.033,60.379,0,83.413
	c-23.033,23.033-23.033,60.379,0,83.413c23.033,23.033,60.379,23.033,83.413,0L143.071,450.58z"/>
<path style="fill:#FFC477;" d="M485.411,463.512c-23.033,23.033-60.379,23.033-83.413,0l-33.069-33.069H143.071l-33.069,33.069
	c-23.033,23.033-60.379,23.033-83.413,0c-8.945-8.945-14.4-20.052-16.397-31.637c-3.146,18.247,2.309,37.687,16.397,51.775
	c23.033,23.033,60.379,23.033,83.413,0l33.069-33.069h225.858l33.069,33.069c23.033,23.033,60.379,23.033,83.413,0
	c14.088-14.088,19.544-33.528,16.398-51.775C499.812,443.459,494.356,454.565,485.411,463.512z"/>
<path style="fill:#EA6928;" d="M80.392,47.435c-0.811,1.89-1.53,3.827-2.164,5.804c0.632-0.018,1.262-0.048,1.898-0.048
	C80.126,51.25,80.227,49.334,80.392,47.435z"/>
<path d="M510.238,358.529c0-12.316-3.33-24.119-9.553-34.39c3.205-5.318,5.652-11.047,7.273-17.1
	c8.864-33.093-8.96-67.167-40.217-79.264c2.349-14.964-0.456-30.163-8.136-43.466c-8.886-15.39-23.233-26.399-40.399-30.996
	c-35.434-9.494-71.991,11.612-81.492,47.046l-9.616,35.896l-113.9-113.899V73.33c0-19.587-7.627-38.002-21.478-51.851
	C178.871,7.627,160.456,0,140.869,0c-38.006,0-69.35,29.06-72.979,66.129c-37.068,3.627-66.128,34.972-66.128,72.978
	c0,40.433,32.895,73.329,73.329,73.329h49.026l93.114,93.113L153.51,342.34h-7.311l-30.857-30.857
	c-25.941-25.941-68.152-25.941-94.092,0C8.683,324.049,1.762,340.757,1.762,358.529c0,15.359,5.169,29.925,14.683,41.707
	c-9.514,11.783-14.683,26.348-14.683,41.706c0,17.771,6.92,34.48,19.487,47.048c12.971,12.971,30.008,19.455,47.047,19.455
	s34.076-6.484,47.047-19.455l30.856-30.858h30.82l-8.76,32.697c-1.172,4.36-2.89,8.522-5.104,12.372l13.091,7.531
	c2.867-4.983,5.086-10.36,6.599-15.988l9.809-36.611h108.843c9.811,29.924,37.637,50.344,69.634,50.344
	c13.208,0,25.979-3.505,37.244-10.171c25.685,16.102,60.052,13.009,82.376-9.317c12.567-12.567,19.487-29.275,19.487-47.048
	c0-15.358-5.169-29.924-14.683-41.706C505.069,388.453,510.238,373.888,510.238,358.529z M352.302,204.268
	c7.344-27.389,35.606-43.704,62.996-36.367c13.269,3.554,24.358,12.062,31.226,23.96c6.868,11.895,8.692,25.756,5.138,39.027
	l-1.953,7.292l7.292,1.955c27.389,7.344,43.703,35.604,36.367,62.996c-0.746,2.786-1.725,5.479-2.909,8.073
	c-18.841-18.616-46.114-23.668-69.541-15.166h-33.036l-47.452-47.452L352.302,204.268z M75.091,197.333
	c-32.106,0-58.226-26.12-58.226-58.226s26.12-58.226,58.226-58.226h7.552v-7.552c0-32.106,26.121-58.226,58.226-58.226
	c15.552,0,30.174,6.057,41.172,17.055s17.054,25.619,17.054,41.172v55.282l182.531,182.531h15.39
	c-0.118,0.116-0.241,0.224-0.357,0.34l-30.857,30.857h-90.42L130.373,197.333H75.091z M228.288,316.606l25.734,25.734h-70.306
	L228.288,316.606z M317.618,458.132h48.183l29.833,29.834c-7.63,3.552-15.949,5.407-24.504,5.407
	C347.447,493.373,326.64,479.285,317.618,458.132z M480.072,405.577c9.713,9.712,15.063,22.629,15.063,36.366
	c0,13.737-5.35,26.653-15.063,36.367c-18.137,18.138-46.562,19.868-66.665,5.193l-0.323-0.242c-0.542-0.402-1.076-0.817-1.605-1.242
	c-0.263-0.211-0.519-0.431-0.777-0.646c-0.36-0.302-0.718-0.607-1.072-0.92c-0.21-0.186-0.42-0.373-0.626-0.561
	c-0.563-0.514-1.12-1.038-1.664-1.582l-35.281-35.28H139.943l-35.281,35.28c-20.053,20.053-52.681,20.054-72.733,0
	c-9.713-9.713-15.063-22.63-15.063-36.367c0-13.737,5.35-26.653,15.063-36.366l5.341-5.341l-5.341-5.34
	c-9.713-9.712-15.063-22.629-15.063-36.367s5.35-26.653,15.063-36.366c20.054-20.052,52.682-20.053,72.733,0l35.281,35.28h232.114
	l35.281-35.28c20.053-20.053,52.68-20.053,72.733,0c9.713,9.712,15.063,22.629,15.063,36.366c0,13.739-5.35,26.654-15.063,36.367
	l-5.34,5.34L480.072,405.577z"/>
<rect x="218.242" y="392.684" width="15.103" height="15.103"/>
<rect x="278.655" y="392.684" width="15.103" height="15.103"/>
<rect x="248.448" y="392.684" width="15.103" height="15.103"/>
<g>
	<path style="fill:#FFFFFF;" d="M480.031,358.53h-15.103c0-5.67-2.207-10.999-6.215-15.007c-2.639-2.64-5.907-4.538-9.455-5.491
		l3.918-14.586c6.102,1.639,11.709,4.887,16.217,9.397C476.253,339.704,480.031,348.827,480.031,358.53z M428.697,343.522
		l-10.678-10.68c4.537-4.537,10.184-7.796,16.329-9.425l3.872,14.598C434.645,338.962,431.353,340.866,428.697,343.522z"/>
	<path style="fill:#FFFFFF;" d="M381.86,387.65h-40.275v-15.103h40.275V387.65z M326.482,387.65h-15.103v-15.103h15.103V387.65z"/>
	<path style="fill:#FFFFFF;" d="M47.072,358.53H31.969c0-6.417,1.688-12.715,4.88-18.213l13.06,7.585
		C48.054,351.099,47.072,354.774,47.072,358.53z M96.607,356.827l-13.304-13.304c-4.009-4.01-9.339-6.217-15.008-6.217
		c-3.733,0-7.386,0.97-10.568,2.803l-7.544-13.083c5.472-3.156,11.735-4.823,18.112-4.823c9.703,0,18.827,3.779,25.688,10.641
		l13.303,13.303L96.607,356.827z"/>
	<path style="fill:#FFFFFF;" d="M68.296,478.269c-9.703,0-18.827-3.779-25.688-10.641l10.68-10.678
		c4.008,4.008,9.338,6.217,15.008,6.217c5.67,0,10.999-2.207,15.008-6.217l10.679,10.68
		C87.122,474.491,77.999,478.269,68.296,478.269z"/>
	<path style="fill:#FFFFFF;" d="M201.628,427.925h-30.206v-15.103h30.206V427.925z M156.319,427.925h-15.103v-15.103h15.103V427.925
		z"/>
	<path style="fill:#FFFFFF;" d="M443.704,478.269c-9.703,0-18.827-3.779-25.688-10.641l10.68-10.678
		c4.008,4.008,9.338,6.217,15.008,6.217s10.999-2.207,15.008-6.217l10.679,10.68C462.531,474.491,453.409,478.269,443.704,478.269z"
		/>
	<path style="fill:#FFFFFF;" d="M236.564,208.798l-10.679-10.679l10.679-10.68l10.679,10.679L236.564,208.798z M215.204,187.439
		l-28.985-28.985l10.679-10.68l28.985,28.985L215.204,187.439z"/>
	<path style="fill:#FFFFFF;" d="M330.639,302.874l-10.679-10.679l10.679-10.68l10.679,10.679L330.639,302.874z M309.28,281.515
		l-28.985-28.985l10.679-10.68l28.985,28.985L309.28,281.515z"/>
	<path style="fill:#FFFFFF;" d="M245.976,291.576l-10.679-10.679l10.679-10.68l10.679,10.679L245.976,291.576z M224.616,270.217
		l-39.054-39.054l10.679-10.68l39.054,39.054L224.616,270.217z"/>
	<path style="fill:#FFFFFF;" d="M75.091,182.23c-23.779,0-43.123-19.345-43.123-43.123h15.103c0,15.451,12.57,28.02,28.02,28.02
		V182.23z"/>
	<path style="fill:#FFFFFF;" d="M168.889,95.15V73.329c0-7.485-2.915-14.521-8.206-19.812c-5.292-5.292-12.329-8.207-19.813-8.207
		c-1.957,0-3.913,0.203-5.812,0.606l-3.125-14.777c2.925-0.618,5.933-0.932,8.938-0.932c11.519,0,22.348,4.486,30.492,12.631
		c8.144,8.143,12.629,18.972,12.629,30.491V95.15H168.889z M116.453,59.597l-13.149-7.432c2.984-5.281,7.15-9.976,12.043-13.58
		l8.954,12.163C121.111,53.098,118.396,56.158,116.453,59.597z"/>
	<path style="fill:#FFFFFF;" d="M463.741,282.896c-2.323-6.684-7.767-11.761-14.564-13.584l3.913-14.588
		c11.636,3.121,20.951,11.799,24.918,23.215L463.741,282.896z"/>
	<path style="fill:#FFFFFF;" d="M381.478,212.093l-14.588-3.912c1.657-6.179,4.925-11.821,9.448-16.319l10.648,10.712
		C384.349,205.195,382.445,208.486,381.478,212.093z M420.365,206.964c-2.833-4.908-7.408-8.417-12.881-9.884
		c-3.586-0.96-7.36-0.963-10.929-0.007l-3.899-14.592c6.114-1.631,12.602-1.629,18.732,0.01c9.374,2.51,17.206,8.52,22.056,16.922
		L420.365,206.964z"/>
</g>
<g>
</g>
<g>
</g>
<g>
</g>
<g>
</g>
<g>
</g>
<g>
</g>
<g>
</g>
<g>
</g>
<g>
</g>
<g>
</g>
<g>
</g>
<g>
</g>
<g>
</g>
<g>
</g>
<g>
</g>
</svg>
