<svg id="Capa_1" enable-background="new 0 0 512 512" height="512" viewBox="0 0 512 512" width="512" xmlns="http://www.w3.org/2000/svg"><g><g><path d="m313.322 66.888h-195.41v-51.414c0-8.546 6.928-15.474 15.474-15.474h164.462c8.546 0 15.474 6.928 15.474 15.474z" fill="#12adb5"/><path d="m313.327 15.47v51.42h-102.67c34.09-6.8 61.11-33.16 68.89-66.89h18.3c8.55 0 15.48 6.93 15.48 15.47z" fill="#0d8ba0"/><path d="m351.014 512h-270.794c-11.395 0-20.632-9.237-20.632-20.632v-429.705c0-11.395 9.237-20.632 20.632-20.632h270.794c11.395 0 20.632 9.237 20.632 20.632v429.705c0 11.395-9.238 20.632-20.632 20.632z" fill="#d8d4c9"/><path d="m371.647 61.66v429.71c0 11.39-9.24 20.63-20.63 20.63h-149.49c61.71-31.89 116.3-118.01 134.43-235.22 14.56-94.18 1.72-181.12-29.73-235.75h44.79c11.39 0 20.63 9.24 20.63 20.63z" fill="#b5b1a4"/></g><g><path d="m333.039 165.104h-234.845v-58.245c0-11.046 8.954-20 20-20h194.845c11.046 0 20 8.954 20 20z" fill="#fff370"/><path d="m333.037 106.86v58.24h-23.27c-4.36-29.78-12.68-56.43-24.37-78.24h27.64c11.05 0 20 8.95 20 20z" fill="#ffe059"/><path d="m98.194 165.104h234.845v78.245h-234.845z" fill="#ffe059"/><path d="m333.037 165.1v78.25h-20.75c2.01-27.55 1.07-53.94-2.52-78.25z" fill="#ffc751"/><path d="m98.194 243.349h234.845v78.245h-234.845z" fill="#ffc751"/><path d="m98.194 321.594h234.845v78.245h-234.845z" fill="#ffaf40"/><path d="m313.039 478.085h-194.845c-11.046 0-20-8.954-20-20v-58.245h234.845v58.245c0 11.045-8.954 20-20 20z" fill="#ff993a"/><path d="m333.037 399.84v58.24c0 11.05-8.95 20-20 20h-105.47c22.86-18.6 43.92-45.46 61.16-78.24z" fill="#f97c15"/></g><g><g><circle cx="340.959" cy="337.818" fill="#f1eee0" r="111.453"/><path d="m373.795 337.818h-18.518l16.271-74.817c1.237-5.688-5.787-9.405-9.795-5.184l-60.586 63.809c-5.8 6.109-1.47 16.192 6.954 16.192h18.518l-16.271 74.817c-1.237 5.688 5.787 9.405 9.795 5.184l60.586-63.809c5.801-6.108 1.47-16.192-6.954-16.192z" fill="#ffc751"/><path d="m380.75 354.01-60.59 63.81c-4 4.22-11.03.5-9.79-5.18l4.02-18.47c21.97-18.82 36.9-55.81 36.9-98.36 0-8.63-.61-17.03-1.78-25.1l12.24-12.89c4.01-4.22 11.04-.51 9.8 5.18l-16.27 74.82h18.52c8.42 0 12.75 10.08 6.95 16.19z" fill="#ffaf40"/><path d="m452.412 337.818c0 61.553-49.898 111.451-111.456 111.451-45.219 0-84.143-26.928-101.623-65.617 20.415 22.92 50.149 37.353 83.26 37.353 61.553 0 111.451-49.898 111.451-111.451 0-16.346-3.516-31.864-9.833-45.845 17.541 19.694 28.201 45.655 28.201 74.109z" fill="#e8e4d8"/></g><g fill="#f9f8f2"><path d="m260.761 323.689c5.825-33.163 31.774-59.477 64.753-65.834 7.05-1.359 12.134-7.546 12.134-14.726 0-9.42-8.58-16.53-17.83-14.753-45.194 8.68-80.678 44.659-88.628 90.108-1.608 9.195 5.457 17.623 14.791 17.623h.002c7.289.001 13.517-5.238 14.778-12.418z"/><circle cx="247.707" cy="362.517" r="15"/></g></g><path d="m78.891 287.885c-10.661 0-19.303-8.642-19.303-19.303v-123.298c0-10.661 8.642-19.303 19.303-19.303 10.661 0 19.303 8.642 19.303 19.303v123.298c0 10.661-8.642 19.303-19.303 19.303z" fill="#f1eee0"/><path d="m242.521 16.142c0 8.763-7.103 15.866-15.866 15.866h-64.355c-8.762 0-15.866-7.103-15.866-15.866 0-8.762 7.103-15.866 15.866-15.866h64.355c8.762 0 15.866 7.103 15.866 15.866z" fill="#3cd3d3"/><circle cx="78.891" cy="325.254" fill="#f1eee0" r="19.303"/><g><path d="m205.843 117.128h-69.274c-8.359 0-15.134-6.776-15.134-15.134 0-8.359 6.776-15.134 15.134-15.134h69.274c8.359 0 15.134 6.776 15.134 15.134 0 8.358-6.776 15.134-15.134 15.134z" fill="#fff7c7"/></g><g><path d="m205.843 195.373h-69.274c-8.359 0-15.134-6.776-15.134-15.134 0-8.359 6.776-15.134 15.134-15.134h69.274c8.359 0 15.134 6.776 15.134 15.134 0 8.358-6.776 15.134-15.134 15.134z" fill="#fff370"/></g><g><path d="m205.843 273.618h-69.274c-8.359 0-15.134-6.776-15.134-15.134 0-8.359 6.776-15.134 15.134-15.134h69.274c8.359 0 15.134 6.776 15.134 15.134 0 8.358-6.776 15.134-15.134 15.134z" fill="#ffe059"/></g><g><path d="m205.843 351.863h-69.274c-8.359 0-15.134-6.776-15.134-15.134 0-8.359 6.776-15.134 15.134-15.134h69.274c8.359 0 15.134 6.776 15.134 15.134 0 8.358-6.776 15.134-15.134 15.134z" fill="#ffc751"/></g><g><path d="m205.843 430.108h-69.274c-8.359 0-15.134-6.776-15.134-15.134 0-8.359 6.776-15.134 15.134-15.134h69.274c8.359 0 15.134 6.776 15.134 15.134 0 8.359-6.776 15.134-15.134 15.134z" fill="#ffaf40"/></g></g></svg>